# xmcd CD database file
#
# Track frame offsets:
#	150
#	15205
#	36492
#	52083
#	71228
#	85534
#	106298
#	122779
#	146367
#	167226
#	187148
#	209533
#	227008
#	248093
#	263067
#	282691
#
# Disc length: 4013 seconds
#
# Revision: 3
# Processed by: cddbd v1.5.2PL0 Copyright (c) Steve Scherf et al.
# Submitted via: CDex 1.79
#
DISCID=ed0fab10
DTITLE=Talisman - Life (Remaster 2013)
DYEAR=1995
DGENRE=Melodic Hard Rock
TTITLE0=Tears In The Sky
TTITLE1=Crazy
TTITLE2=Body
TTITLE3=Temptation
TTITLE4=Loveblind
TTITLE5=Soul 2 Soul
TTITLE6=All That Really Matters
TTITLE7=A Life
TTITLE8=Sympathy
TTITLE9=So Long
TTITLE10=Hands Of Time
TTITLE11=How Was I To Know
TTITLE12=Love's Gone
TTITLE13=Tears In The Sky (Demo)
TTITLE14=Sympathy (Demo) 
TTITLE15=Temptation (Demo) 
EXTD=YEAR: 1995
EXTT0=
EXTT1=
EXTT2=
EXTT3=
EXTT4=
EXTT5=
EXTT6=
EXTT7=
EXTT8=
EXTT9=
EXTT10=
EXTT11=
EXTT12=
EXTT13=
EXTT14=
EXTT15=
PLAYORDER=
